<svg width="32" height="33" viewBox="0 0 32 33" fill="none" xmlns="http://www.w3.org/2000/svg">
<path d="M27.4205 9.8555C27.0481 8.97207 26.5112 8.17153 25.8398 7.49867C25.1678 6.8238 24.3756 6.28749 23.5062 5.91891C22.6046 5.53519 21.6377 5.33878 20.6614 5.34108C19.2918 5.34108 17.9556 5.72535 16.7943 6.45119C16.5165 6.62482 16.2526 6.81553 16.0026 7.02331C15.7525 6.81553 15.4886 6.62482 15.2108 6.45119C14.0496 5.72535 12.7133 5.34108 11.3437 5.34108C10.3575 5.34108 9.40182 5.53464 8.49894 5.91891C7.62663 6.28894 6.84043 6.82122 6.16535 7.49867C5.49304 8.17077 4.95599 8.9715 4.58462 9.8555C4.00122 10.6038 4.00122 11.7512 4.00122 12.756C4.00122 13.7038 4.19013 14.6916 4.56517 15.6963C4.8791 16.536 5.32915 17.407 5.90421 18.2866C6.81542 19.6785 8.06834 21.1301 9.62407 22.6017C12.2021 25.0411 14.7552 26.7262 14.8635 26.7945L15.522 27.2272C15.8137 27.4179 16.1887 27.4179 16.4804 27.2272L17.1388 26.7945C17.2471 26.7233 19.7974 25.0411 22.3783 22.6017C23.934 21.1301 25.1869 19.6785 26.0981 18.2866C26.6732 17.407 27.126 16.536 27.4372 15.6963C27.8122 14.6916 28.0012 13.7038 28.0012 12.756C28.004 11.7512 27.8067 10.7749 27.4205 9.8555Z" fill="#937DC2"/>
</svg>
