<svg width="28" height="28" viewBox="0 0 28 28" fill="none" xmlns="http://www.w3.org/2000/svg">
<g clip-path="url(#clip0_1_1462)">
<path d="M14 9.51415C11.5298 9.51415 9.51398 11.53 9.51398 14.0002C9.51398 16.4704 11.5298 18.4863 14 18.4863C16.4702 18.4863 18.4861 16.4704 18.4861 14.0002C18.4861 11.53 16.4702 9.51415 14 9.51415ZM27.5 14C27.5 12.1423 27.6044 10.3545 27.5 8.50018C27.3957 6.34633 28.075 3.07518 26.5 1.50018C24.9217 -0.0781877 21.6539 0.604502 19.5 0.500175C17.6423 0.395848 15.8544 0.500175 14 0.500175C12.1423 0.500175 10.3544 0.395848 8.50003 0.500175C6.34618 0.604502 3.07505 -0.0748856 1.50005 1.50011C-0.0783134 3.07848 0.604383 6.34633 0.500056 8.50018C0.395729 10.3579 0.500031 12.1457 0.500031 14C0.500031 15.8543 0.395729 17.6988 0.500056 19.5531C0.604383 21.7069 -0.0749695 24.9252 1.50003 26.5002C3.0784 28.0785 6.34618 27.3959 8.50003 27.5002C10.3577 27.6045 12.1457 27.5002 14 27.5002C15.8577 27.5002 17.6457 27.6045 19.5 27.5002C21.6539 27.3959 24.925 28.0752 26.5 26.5002C28.0784 24.9218 27.3957 22.154 27.5 20.0002C27.6077 18.1459 27.5 15.8577 27.5 14ZM14 20.9026C10.1803 20.9026 7.09763 17.8199 7.09763 14.0002C7.09763 10.1805 10.1803 7.0978 14 7.0978C17.8197 7.0978 20.9024 10.1805 20.9024 14.0002C20.9024 17.8199 17.8197 20.9026 14 20.9026ZM21.1851 8.42713C20.2933 8.42713 19.5731 7.70694 19.5731 6.81511C19.5731 5.92328 20.2933 5.20309 21.1851 5.20309C22.077 5.20309 22.7972 5.92328 22.7972 6.81511C22.7974 7.02688 22.7559 7.23662 22.675 7.43232C22.5941 7.62801 22.4753 7.80583 22.3256 7.95557C22.1759 8.10531 21.998 8.22404 21.8023 8.30496C21.6066 8.38588 21.3969 8.42739 21.1851 8.42713Z" fill="white"/>
</g>
<defs>
<clipPath id="clip0_1_1462">
<rect width="28" height="28" fill="white"/>
</clipPath>
</defs>
</svg>
