<svg width="49" height="49" viewBox="0 0 49 49" fill="none" xmlns="http://www.w3.org/2000/svg">
<path d="M22.0744 11.7607C19.5336 10.5226 16.6793 9.82788 13.6628 9.82788C10.6462 9.82788 7.79189 10.5226 5.2511 11.7607V35.7941C7.79189 34.5559 10.6462 33.8612 13.6628 33.8612C17.673 33.8612 21.3964 35.089 24.4778 37.1891C27.5591 35.089 31.2826 33.8612 35.2928 33.8612C38.3093 33.8612 41.1636 34.5559 43.7044 35.7941V11.7607C41.1636 10.5226 38.3093 9.82788 35.2928 9.82788C32.2762 9.82788 29.4219 10.5226 26.8811 11.7607V29.0545C26.8811 30.3819 25.8051 31.4579 24.4778 31.4579C23.1504 31.4579 22.0744 30.3819 22.0744 29.0545V11.7607Z" fill="#382C2C"/>
</svg>
