<svg width="28" height="28" viewBox="0 0 28 28" fill="none" xmlns="http://www.w3.org/2000/svg">
<g clip-path="url(#clip0_1_1466)">
<path d="M24 0.5H4C2.34375 0.5 0.5 2.3275 0.5 3.96371V24.0363C0.5 25.6725 2.34375 27.4637 4 27.4637L24 27.5C25.6562 27.5 27.5 25.6725 27.5 24.0363V4C27.5 2.36379 25.6562 0.5 24 0.5ZM21.9438 9.97437C21.9563 10.1473 21.9562 10.3263 21.9562 10.4992C21.9562 15.8524 17.8312 22.0206 10.2937 22.0206C7.96875 22.0206 5.8125 21.3538 4 20.2053C4.33125 20.2424 4.65 20.2547 4.9875 20.2547C6.90625 20.2547 8.66875 19.6126 10.075 18.5259C8.275 18.4889 6.7625 17.3219 6.24375 15.7166C6.875 15.8092 7.44375 15.8092 8.09375 15.6425C6.21875 15.2658 4.8125 13.6358 4.8125 11.6662V11.6168C5.35625 11.9193 5.99375 12.1045 6.6625 12.1292C6.10027 11.7598 5.63936 11.2586 5.32092 10.6703C5.00247 10.0821 4.83639 9.4251 4.8375 8.75802C4.8375 8.00474 5.0375 7.31321 5.39375 6.71429C7.4125 9.1717 10.4438 10.777 13.8438 10.9499C13.2625 8.20232 15.3438 5.97337 17.8438 5.97337C19.025 5.97337 20.0875 6.46114 20.8375 7.25146C21.7625 7.07858 22.65 6.73899 23.4375 6.27591C23.1313 7.21442 22.4875 8.00474 21.6375 8.50487C22.4625 8.41843 23.2625 8.18997 24 7.87508C23.4438 8.68392 22.7437 9.40016 21.9438 9.97437Z" fill="#FCFCFC"/>
</g>
<defs>
<clipPath id="clip0_1_1466">
<rect width="28" height="28" fill="white"/>
</clipPath>
</defs>
</svg>
