<svg width="24" height="24" viewBox="0 0 24 24" fill="none" xmlns="http://www.w3.org/2000/svg">
<g id="Phone">
<path id="Icon" d="M2.40002 3.6C2.40002 2.93726 2.93728 2.4 3.60002 2.4H6.18347C6.77008 2.4 7.27071 2.8241 7.36715 3.40272L8.25432 8.72577C8.34093 9.24541 8.07849 9.76077 7.6073 9.99636L5.74954 10.9252C7.08909 14.254 9.74604 16.9109 13.0748 18.2505L14.0037 16.3927C14.2393 15.9215 14.7546 15.6591 15.2743 15.7457L20.5973 16.6329C21.1759 16.7293 21.6 17.2299 21.6 17.8166V20.4C21.6 21.0627 21.0628 21.6 20.4 21.6H18C9.38438 21.6 2.40002 14.6156 2.40002 6V3.6Z" fill="#937DC2"/>
</g>
</svg>
