<svg width="28" height="28" viewBox="0 0 28 28" fill="none" xmlns="http://www.w3.org/2000/svg">
<g clip-path="url(#clip0_1_1464)">
<path d="M23.133 0H4C1.8 0 0 1.8 0 4V23.135C0 25.335 1.8 27.135 4 27.135H23.135C25.335 27.135 27.135 25.335 27.135 23.135V4C27.133 1.8 25.335 0 23.133 0ZM22.876 14.483H19.656V26.133H14.838V14.483H12.428V10.467H14.838V8.057C14.838 4.781 16.198 2.832 20.068 2.832H23.285V6.847H21.273C19.769 6.847 19.669 7.41 19.669 8.457L19.656 10.467H23.301L22.875 14.483H22.876Z" fill="white"/>
</g>
<defs>
<clipPath id="clip0_1_1464">
<rect width="28" height="28" fill="white"/>
</clipPath>
</defs>
</svg>
