<svg width="49" height="49" viewBox="0 0 49 49" fill="none" xmlns="http://www.w3.org/2000/svg">
<g clip-path="url(#clip0_1_447)">
<path d="M23.8739 3.14571C24.1737 2.22312 25.4789 2.22313 25.7787 3.14572L29.9973 16.1293C30.1314 16.5419 30.5158 16.8212 30.9497 16.8212H44.6014C45.5715 16.8212 45.9748 18.0626 45.19 18.6328L34.1455 26.657C33.7945 26.912 33.6477 27.364 33.7817 27.7766L38.0004 40.7602C38.3001 41.6828 37.2442 42.45 36.4594 41.8798L25.4149 33.8555C25.0639 33.6005 24.5887 33.6005 24.2377 33.8555L13.1932 41.8798C12.4084 42.45 11.3525 41.6828 11.6522 40.7602L15.8709 27.7766C16.0049 27.364 15.8581 26.912 15.5071 26.657L4.4626 18.6328C3.6778 18.0626 4.08113 16.8212 5.0512 16.8212H18.7029C19.1368 16.8212 19.5212 16.5419 19.6553 16.1293L23.8739 3.14571Z" fill="#382C2C"/>
</g>
<defs>
<clipPath id="clip0_1_447">
<rect width="48.0667" height="48.0667" fill="white" transform="translate(0.792969 0.2146)"/>
</clipPath>
</defs>
</svg>
