<svg width="49" height="49" viewBox="0 0 49 49" fill="none" xmlns="http://www.w3.org/2000/svg">
<path d="M19.3995 39.8668C19.3995 41.8578 17.7855 43.4718 15.7945 43.4718C13.8035 43.4718 12.1895 41.8578 12.1895 39.8668C12.1895 37.8758 13.8035 36.2618 15.7945 36.2618C17.7855 36.2618 19.3995 37.8758 19.3995 39.8668Z" fill="#382C2C"/>
<path d="M36.2228 39.8668C36.2228 41.8578 34.6088 43.4718 32.6178 43.4718C30.6268 43.4718 29.0128 41.8578 29.0128 39.8668C29.0128 37.8758 30.6268 36.2618 32.6178 36.2618C34.6088 36.2618 36.2228 37.8758 36.2228 39.8668Z" fill="#382C2C"/>
<path d="M7.38282 9.82513C6.0555 9.82513 4.97949 10.9011 4.97949 12.2285V36.2618C4.97949 37.5891 6.0555 38.6651 7.38282 38.6651H9.90634C10.463 35.9226 12.8877 33.8585 15.7945 33.8585C18.7013 33.8585 21.1259 35.9226 21.6826 38.6651H24.2061C25.5335 38.6651 26.6095 37.5891 26.6095 36.2618V12.2285C26.6095 10.9011 25.5335 9.82513 24.2061 9.82513H7.38282Z" fill="#382C2C"/>
<path d="M33.8195 17.0351C32.4921 17.0351 31.4161 18.1111 31.4161 19.4385V33.9786C31.8044 33.8998 32.2063 33.8585 32.6178 33.8585C35.5246 33.8585 37.9492 35.9226 38.5059 38.6651H41.0295C42.3568 38.6651 43.4328 37.5891 43.4328 36.2618V24.2451C43.4328 23.6077 43.1796 22.9964 42.7289 22.5457L37.9222 17.739C37.4715 17.2883 36.8602 17.0351 36.2228 17.0351H33.8195Z" fill="#382C2C"/>
</svg>
